<svg version="1.1" xmlns="http://www.w3.org/2000/svg" xmlns:xlink="http://www.w3.org/1999/xlink" width="128" height="128">
<linearGradient id="1" x1="73.11" y1="67.28" x2="62.15" y2="23.19" gradientUnits="userSpaceOnUse">
	<stop id="stop2" style="stop-color:#FCC21B" offset="0" />
	<stop id="stop4" style="stop-color:#42ADE7" offset="1" />
</linearGradient>
<path fill="url(#1)" d="M27.34,75.28C21.09,51.24,34.47,27.97,57.96,22.89,108.62,11.94,131.11,58,127.4,91.14,127.4,102.18,104.82,111.15,76.98,111.15,50.88,111.15,29.42,103.26,26.83,93.18,26.66,92.5,26.58,91.82,26.58,91.13,26.58,85.88,29.88,85.09,27.34,75.28z" />
<path id="2" fill="#FFF" d="M98.71,89C98.59,84.78,94.43,78,93.6,77.94,92.83,77.87,89.37,83.18,88.92,88.56,88.47,92.4,90.65,95.15,93.72,95.15,97.11,95.09,98.78,92.78,98.71,89z" />
<use xlink:href="#2" fill="#FFF" transform="translate(17,-16)" />
<use xlink:href="#2" fill="#FFF" transform="translate(6,-41)" />
<path fill="#ED6C30" d="M69.57,83.63C68.24,81.30,66.44,79.83,65.02,78.51,61.67,75.4,58.94,74.6,55.49,74.62,50.61,74.62,46.12,76.62,42.77,84.9,41.59,87.22,44.22,87.02,44.22,87.02,44.22,87.02,65.11,87.02,67.62,87.02,70.13,87.02,70.43,85.21,69.57,83.63z" />
<path fill="#FFF" d="M60,62.38C61.3,69.5,67.69,74.32,74.266,73.12,80.858,71.92,85.138,65.168,83.826,58.04,82.53,50.912,76.146,46.112,69.562,47.312,62.978,48.512,58.698,55.256,60.002,62.384z" />
<path fill="#2F2F2F" d="M66.9,66.12C67.21,68.78,69.27,70.75,71.5,70.55,73.76,70.35,75.33,68.03,75.03,65.39,74.72,62.74,72.64,60.75,70.4,60.95,68.16,61.16,66.59,63.47,66.9,66.12" />
<path fill="#FFF" d="M49.88,59.5C47.27,52.97,40.74,49.44,35.31,51.62,29.87,53.79,27.59,60.85,30.21,67.38,32.83,73.9,39.34,77.43,44.78,75.26,50.21,73.08,52.49,66.02,49.88,59.5z" />
<path fill="#F69175" stroke="#2F2F2F" stroke-width="3.2" stroke-linecap="round" stroke-linejoin="round" d="M29.64,35.74C22.47,39.37,7.77,59.26,7.77,59.26,8.41,63.86,16.15,71.18,18.87,67.83,22.51,63.38,30.46,44.7,42.7,41.78,53.27,40.07,50.25,29.39,44.3,28.98,44.3,28.98,43.87,21.74,32.64,24.58,22.47,27.15,10,41.46,2.81,51.38-1.69,57.58,7.75,59.26,7.75,59.26" />
<path fill="#2F2F2F" d="M41.55,66.41C40.79,64.07,38.55,62.66,36.56,63.26,34.57,63.85,33.59,66.22,34.35,68.56,35.11,70.9,37.35,72.31,39.34,71.71,41.32,71.12,42.31,68.74,41.55,66.41" />
</svg>
