<?xml version="1.0" encoding="UTF-8" standalone="no"?>
<svg
   xmlns:dc="http://purl.org/dc/elements/1.1/"
   xmlns:cc="http://creativecommons.org/ns#"
   xmlns:rdf="http://www.w3.org/1999/02/22-rdf-syntax-ns#"
   xmlns:svg="http://www.w3.org/2000/svg"
   xmlns="http://www.w3.org/2000/svg"
   xmlns:xlink="http://www.w3.org/1999/xlink"
   xmlns:sodipodi="http://sodipodi.sourceforge.net/DTD/sodipodi-0.dtd"
   xmlns:inkscape="http://www.inkscape.org/namespaces/inkscape"
   inkscape:version="1.0 (4035a4fb49, 2020-05-01)"
   inkscape:export-ydpi="96"
   inkscape:export-xdpi="96"
   inkscape:export-filename="C:\Users\benny\Documents\meatsweats\frames\vomit\meatsweats3.png"
   sodipodi:docname="meatsweats-mask.svg"
   id="svg1057"
   height="128"
   width="128"
   version="1.1">
  <metadata
     id="metadata1063">
    <rdf:RDF>
      <cc:Work
         rdf:about="">
        <dc:format>image/svg+xml</dc:format>
        <dc:type
           rdf:resource="http://purl.org/dc/dcmitype/StillImage" />
        <dc:title></dc:title>
      </cc:Work>
    </rdf:RDF>
  </metadata>
  <defs
     id="defs1061">
    <clipPath
       id="SVGID_2_">
      <use
         style="overflow:visible"
         xlink:href="#SVGID_1_"
         id="use3477"
         x="0"
         y="0"
         width="100%"
         height="100%" />
    </clipPath>
    <clipPath
       id="clipPath4094">
      <use
         style="overflow:visible"
         xlink:href="#SVGID_1_"
         id="use4092"
         x="0"
         y="0"
         width="100%"
         height="100%" />
    </clipPath>
    <clipPath
       id="clipPath4098">
      <use
         style="overflow:visible"
         xlink:href="#SVGID_1_"
         id="use4096"
         x="0"
         y="0"
         width="100%"
         height="100%" />
    </clipPath>
    <clipPath
       id="clipPath4102">
      <use
         style="overflow:visible"
         xlink:href="#SVGID_1_"
         id="use4100"
         x="0"
         y="0"
         width="100%"
         height="100%" />
    </clipPath>
    <path
       id="SVGID_1_"
       d="M 64.1,9.64 C 1.79,9.64 0.31,79.5 0.31,93.33 c 0,13.83 28.56,25.03 63.79,25.03 35.24,0 63.79,-11.21 63.79,-25.03 0,-13.83 -1.46,-83.69 -63.79,-83.69 z" />
  </defs>
  <sodipodi:namedview
     inkscape:current-layer="svg1057"
     inkscape:window-maximized="1"
     inkscape:window-y="-9"
     inkscape:window-x="-9"
     inkscape:cy="70.137902"
     inkscape:cx="38.325546"
     inkscape:zoom="4.8613591"
     showgrid="false"
     id="namedview1059"
     inkscape:window-height="1051"
     inkscape:window-width="1920"
     inkscape:pageshadow="2"
     inkscape:pageopacity="0"
     guidetolerance="10"
     gridtolerance="10"
     objecttolerance="10"
     borderopacity="1"
     bordercolor="#666666"
     pagecolor="#ffffff" />
  <linearGradient
     gradientUnits="userSpaceOnUse"
     y2="23.19"
     x2="62.15"
     y1="67.28"
     x1="73.11"
     id="1">
    <stop
       offset="0"
       style="stop-color:#FCC21B"
       id="stop2" />
    <stop
       offset="1"
       style="stop-color:#42ADE7"
       id="stop4" />
  </linearGradient>
  <path
     id="path1038"
     d="M27.34,75.28C21.09,51.24,34.47,27.97,57.96,22.89,108.62,11.94,131.11,58,127.4,91.14,127.4,102.18,104.82,111.15,76.98,111.15,50.88,111.15,29.42,103.26,26.83,93.18,26.66,92.5,26.58,91.82,26.58,91.13,26.58,85.88,29.88,85.09,27.34,75.28z"
     fill="url(#1)" />
  <path
     d="M98.71,89C98.59,84.78,94.43,78,93.6,77.94,92.83,77.87,89.37,83.18,88.92,88.56,88.47,92.4,90.65,95.15,93.72,95.15,97.11,95.09,98.78,92.78,98.71,89z"
     fill="#FFF"
     id="2" />
  <use
     id="use1041"
     transform="translate(17,-16)"
     fill="#FFF"
     xlink:href="#2" />
  <use
     id="use1043"
     transform="translate(6,-41)"
     fill="#FFF"
     xlink:href="#2" />
  <path
     id="path1045"
     d="M69.57,83.63C68.24,81.30,66.44,79.83,65.02,78.51,61.67,75.4,58.94,74.6,55.49,74.62,50.61,74.62,46.12,76.62,42.77,84.9,41.59,87.22,44.22,87.02,44.22,87.02,44.22,87.02,65.11,87.02,67.62,87.02,70.13,87.02,70.43,85.21,69.57,83.63z"
     fill="#ED6C30" />
  <path
     id="path1047"
     d="M60,62.38C61.3,69.5,67.69,74.32,74.266,73.12,80.858,71.92,85.138,65.168,83.826,58.04,82.53,50.912,76.146,46.112,69.562,47.312,62.978,48.512,58.698,55.256,60.002,62.384z"
     fill="#FFF" />
  <path
     id="path1049"
     d="M66.9,66.12C67.21,68.78,69.27,70.75,71.5,70.55,73.76,70.35,75.33,68.03,75.03,65.39,74.72,62.74,72.64,60.75,70.4,60.95,68.16,61.16,66.59,63.47,66.9,66.12"
     fill="#2F2F2F" />
  <path
     id="path1051"
     d="M49.88,59.5C47.27,52.97,40.74,49.44,35.31,51.62,29.87,53.79,27.59,60.85,30.21,67.38,32.83,73.9,39.34,77.43,44.78,75.26,50.21,73.08,52.49,66.02,49.88,59.5z"
     fill="#FFF" />
  <path
     id="path1053"
     d="M29.64,35.74C22.47,39.37,7.77,59.26,7.77,59.26,8.41,63.86,16.15,71.18,18.87,67.83,22.51,63.38,30.46,44.7,42.7,41.78,53.27,40.07,50.25,29.39,44.3,28.98,44.3,28.98,43.87,21.74,32.64,24.58,22.47,27.15,10,41.46,2.81,51.38-1.69,57.58,7.75,59.26,7.75,59.26"
     stroke-linejoin="round"
     stroke-linecap="round"
     stroke-width="3.2"
     stroke="#2F2F2F"
     fill="#F69175" />
  <path
     id="path1055"
     d="M41.55,66.41C40.79,64.07,38.55,62.66,36.56,63.26,34.57,63.85,33.59,66.22,34.35,68.56,35.11,70.9,37.35,72.31,39.34,71.71,41.32,71.12,42.31,68.74,41.55,66.41"
     fill="#2F2F2F" />
  <path
     d="m 73.630543,98.308316 c -10.832705,1.25596 -21.775889,1.25596 -32.608595,0 -3.203876,-0.37214 -5.791398,-3.40158 -5.791398,-6.61127 0,-4.84361 0,-9.69303 0,-14.536639 0,-3.215505 2.587522,-5.390187 5.791398,-5.018049 10.832706,1.255966 21.77589,1.255966 32.608595,0 3.203876,-0.372138 5.791399,1.802544 5.791399,5.018049 0,4.843609 0,9.693029 0,14.536639 0,3.20969 -2.587523,6.23913 -5.791399,6.61127 z"
     style="fill:#ffffff;stroke-width:0.581466"
     id="path3472" />
  <g
     id="g3496"
     transform="matrix(0.59156187,0,0,0.59156187,26.536284,34.937716)">
    <defs
       id="defs3475">
      <path
         id="path4153"
         d="M 64.1,9.64 C 1.79,9.64 0.31,79.5 0.31,93.33 c 0,13.83 28.56,25.03 63.79,25.03 35.24,0 63.79,-11.21 63.79,-25.03 0,-13.83 -1.46,-83.69 -63.79,-83.69 z" />
    </defs>
    <clipPath
       id="clipPath4108">
      <use
         style="overflow:visible"
         xlink:href="#SVGID_1_"
         id="use4106"
         x="0"
         y="0"
         width="100%"
         height="100%" />
    </clipPath>
    <g
       transform="translate(-5.5636795)"
       clip-path="url(#SVGID_2_)"
       id="g3482">
      <path
         d="m 97.2,80.1 c -1.44,0 -2.71,-1.04 -2.95,-2.51 -0.27,-1.63 0.83,-3.18 2.46,-3.45 0.18,-0.03 18.19,-3.13 32.4,-12.72 1.38,-0.93 3.24,-0.56 4.17,0.81 0.93,1.37 0.57,3.24 -0.81,4.17 -15.32,10.33 -33.98,13.52 -34.77,13.66 -0.17,0.02 -0.33,0.04 -0.5,0.04 z"
         style="fill:#ffffff"
         id="path3480" />
    </g>
    <g
       clip-path="url(#SVGID_2_)"
       id="g3486">
      <path
         d="m 91.63632,99.17 c -1.58,0 -2.91,-1.24 -2.99,-2.84 -0.09,-1.65 1.18,-3.07 2.83,-3.16 0.18,-0.01 18.44,-1.05 32.69,-6.4 1.55,-0.58 3.28,0.2 3.86,1.75 0.58,1.55 -0.2,3.28 -1.75,3.86 -15.13,5.68 -33.7,6.73 -34.48,6.77 -0.05,0.02 -0.1,0.02 -0.16,0.02 z"
         style="fill:#ffffff"
         id="path3484" />
    </g>
    <g
       clip-path="url(#SVGID_2_)"
       id="g3490">
      <path
         d="m 31.01,80.1 c -0.16,0 -0.33,-0.01 -0.5,-0.04 C 29.72,79.93 11.06,76.74 -4.26,66.39 -5.63,65.46 -6,63.6 -5.07,62.22 c 0.93,-1.38 2.79,-1.74 4.16,-0.81 14.25,9.62 32.22,12.69 32.4,12.72 1.63,0.27 2.74,1.82 2.47,3.45 -0.24,1.48 -1.51,2.52 -2.95,2.52 z"
         style="fill:#ffffff"
         id="path3488" />
    </g>
    <g
       clip-path="url(#SVGID_2_)"
       id="g3494">
      <path
         d="m 31,99.17 c -0.05,0 -0.11,0 -0.16,0 -0.78,-0.04 -19.35,-1.09 -34.48,-6.77 -1.55,-0.58 -2.34,-2.31 -1.75,-3.86 0.58,-1.55 2.31,-2.34 3.86,-1.75 14.28,5.36 32.51,6.39 32.69,6.4 1.65,0.09 2.92,1.5 2.84,3.16 -0.09,1.58 -1.41,2.82 -3,2.82 z"
         style="fill:#ffffff"
         id="path3492" />
    </g>
  </g>
</svg>
