<?xml version="1.0" encoding="UTF-8" standalone="no"?>
<svg
   xmlns:dc="http://purl.org/dc/elements/1.1/"
   xmlns:cc="http://creativecommons.org/ns#"
   xmlns:rdf="http://www.w3.org/1999/02/22-rdf-syntax-ns#"
   xmlns:svg="http://www.w3.org/2000/svg"
   xmlns="http://www.w3.org/2000/svg"
   xmlns:xlink="http://www.w3.org/1999/xlink"
   xmlns:sodipodi="http://sodipodi.sourceforge.net/DTD/sodipodi-0.dtd"
   xmlns:inkscape="http://www.inkscape.org/namespaces/inkscape"
   inkscape:version="1.0 (4035a4fb49, 2020-05-01)"
   sodipodi:docname="sax-meatsweats.svg"
   id="svg2746"
   height="128"
   width="128"
   version="1.1">
  <metadata
     id="metadata2752">
    <rdf:RDF>
      <cc:Work
         rdf:about="">
        <dc:format>image/svg+xml</dc:format>
        <dc:type
           rdf:resource="http://purl.org/dc/dcmitype/StillImage" />
        <dc:title></dc:title>
      </cc:Work>
    </rdf:RDF>
  </metadata>
  <defs
     id="defs2750" />
  <sodipodi:namedview
     inkscape:current-layer="svg2746"
     inkscape:window-maximized="1"
     inkscape:window-y="-9"
     inkscape:window-x="-9"
     inkscape:cy="68.940438"
     inkscape:cx="30.281097"
     inkscape:zoom="4.8613591"
     showgrid="false"
     id="namedview2748"
     inkscape:window-height="1051"
     inkscape:window-width="1920"
     inkscape:pageshadow="2"
     inkscape:pageopacity="0"
     guidetolerance="10"
     gridtolerance="10"
     objecttolerance="10"
     borderopacity="1"
     bordercolor="#666666"
     pagecolor="#ffffff" />
  <linearGradient
     gradientUnits="userSpaceOnUse"
     y2="23.19"
     x2="62.15"
     y1="67.28"
     x1="73.11"
     id="1">
    <stop
       offset="0"
       style="stop-color:#FCC21B"
       id="stop2" />
    <stop
       offset="1"
       style="stop-color:#42ADE7"
       id="stop4" />
  </linearGradient>
  <path
     id="path2727"
     d="M27.34,75.28C21.09,51.24,34.47,27.97,57.96,22.89,108.62,11.94,131.11,58,127.4,91.14,127.4,102.18,104.82,111.15,76.98,111.15,50.88,111.15,29.42,103.26,26.83,93.18,26.66,92.5,26.58,91.82,26.58,91.13,26.58,85.88,29.88,85.09,27.34,75.28z"
     fill="url(#1)" />
  <path
     d="M98.71,89C98.59,84.78,94.43,78,93.6,77.94,92.83,77.87,89.37,83.18,88.92,88.56,88.47,92.4,90.65,95.15,93.72,95.15,97.11,95.09,98.78,92.78,98.71,89z"
     fill="#FFF"
     id="2" />
  <use
     id="use2730"
     transform="translate(17,-16)"
     fill="#FFF"
     xlink:href="#2" />
  <use
     id="use2732"
     transform="translate(6,-41)"
     fill="#FFF"
     xlink:href="#2" />
  <path
     id="path2734"
     d="M69.57,83.63C68.24,81.30,66.44,79.83,65.02,78.51,61.67,75.4,58.94,74.6,55.49,74.62,50.61,74.62,46.12,76.62,42.77,84.9,41.59,87.22,44.22,87.02,44.22,87.02,44.22,87.02,65.11,87.02,67.62,87.02,70.13,87.02,70.43,85.21,69.57,83.63z"
     fill="#ED6C30" />
  <path
     id="path2736"
     d="M60,62.38C61.3,69.5,67.69,74.32,74.266,73.12,80.858,71.92,85.138,65.168,83.826,58.04,82.53,50.912,76.146,46.112,69.562,47.312,62.978,48.512,58.698,55.256,60.002,62.384z"
     fill="#FFF" />
  <path
     id="path2738"
     d="M66.9,66.12C67.21,68.78,69.27,70.75,71.5,70.55,73.76,70.35,75.33,68.03,75.03,65.39,74.72,62.74,72.64,60.75,70.4,60.95,68.16,61.16,66.59,63.47,66.9,66.12"
     fill="#2F2F2F" />
  <path
     id="path2740"
     d="M49.88,59.5C47.27,52.97,40.74,49.44,35.31,51.62,29.87,53.79,27.59,60.85,30.21,67.38,32.83,73.9,39.34,77.43,44.78,75.26,50.21,73.08,52.49,66.02,49.88,59.5z"
     fill="#FFF" />
  <path
     id="path2742"
     d="M29.64,35.74C22.47,39.37,7.77,59.26,7.77,59.26,8.41,63.86,16.15,71.18,18.87,67.83,22.51,63.38,30.46,44.7,42.7,41.78,53.27,40.07,50.25,29.39,44.3,28.98,44.3,28.98,43.87,21.74,32.64,24.58,22.47,27.15,10,41.46,2.81,51.38-1.69,57.58,7.75,59.26,7.75,59.26"
     stroke-linejoin="round"
     stroke-linecap="round"
     stroke-width="3.2"
     stroke="#2F2F2F"
     fill="#F69175" />
  <path
     id="path2744"
     d="M41.55,66.41C40.79,64.07,38.55,62.66,36.56,63.26,34.57,63.85,33.59,66.22,34.35,68.56,35.11,70.9,37.35,72.31,39.34,71.71,41.32,71.12,42.31,68.74,41.55,66.41"
     fill="#2F2F2F" />
  <g
     transform="matrix(0.32401293,0,0,0.32401293,0.71848693,78.910931)"
     id="g3368">
    <g
       id="g3362">
      <path
         fill="#fcc21b"
         d="m 114.28,24.98 c 0,0 -1.17,-2.33 -3.54,-3.69 -3.23,-1.85 -4.42,-7.68 -6.93,-10.97 C 100.77,6.34 95.92,5.14 93.65,5.13 89.19,5.09 86.06,6.59 82.93,11.76 81.85,13.53 39.78,88.96 39.78,88.96 41.59,84.22 43,78.5 44.21,73.59 c 1.11,-4.46 1.28,-6.79 3.07,-13.45 0.81,-3.02 4.03,-7.76 3.41,-12.09 -1,-6.9 -10.13,-12.4 -26.84,-11.57 -18.04,0.9 -24.15,8.81 -23.25,15.47 0.7,5.13 7.2,8.23 8.14,15.32 0.39,2.95 -0.65,8.15 -1.8,13.69 -4.01,19.23 1.55,35.54 15.16,40.14 13.82,4.68 29.94,0.4 37.25,-16.44 5.08,-11.68 24.86,-61.32 27.31,-67.86 2.2,-5.85 6.88,-18.62 8.19,-17.89 1.48,0.82 3.66,6.97 11.12,9.22 5.23,1.59 12.51,1.6 12.51,1.6 z M 26.99,56.82 c -8.63,0.25 -15.98,-2.58 -16.41,-6.32 -0.43,-3.75 6.23,-6.99 14.88,-7.26 8.62,-0.26 15.98,2.57 16.41,6.31 0.43,3.76 -6.22,7.01 -14.88,7.27 z"
         id="path3346" />
      <g
         id="g3360">
        <g
           id="g3350">
          <path
             fill="#2f2f2f"
             d="m 124.94,28.33 c -0.4,-0.37 -0.47,-0.52 -0.72,-1.11 -0.28,-0.67 -0.67,-1.59 -1.55,-2.68 -1.22,-1.51 -3,-2.39 -5.06,-3.41 -1.08,-0.54 -2.21,-1.09 -3.37,-1.79 -1.39,-0.84 -3.88,-0.44 -4.49,1.21 0.47,0.4 0.93,0.67 1.12,0.94 0.95,1.39 0.55,3.13 0.05,4.39 -0.6,1.5 -2.81,2.74 -4.86,2.28 -0.1,0.37 -0.13,0.94 -0.14,1.33 -0.01,0.42 0.17,0.9 0.37,1.27 0.43,0.81 1.21,1.4 2.1,1.61 1.97,0.46 3.98,0.95 5.99,1.43 2.02,0.49 4.05,0.98 6.05,1.44 l 1.92,0.45 c 0.3,0.09 0.85,0.25 1.51,0.25 1.52,0 2.85,-0.9 3.39,-2.31 0.96,-2.57 -1.25,-4.41 -2.31,-5.3 z"
             id="path3348" />
        </g>
        <path
           fill="#f79329"
           d="m 61.82,70.95 c 0,3.36 -2.73,6.09 -6.08,6.09 -3.37,0 -6.09,-2.73 -6.09,-6.09 0,-3.36 2.73,-6.08 6.09,-6.08 3.36,-0.01 6.08,2.72 6.08,6.08 z"
           id="path3352" />
        <path
           fill="#f79329"
           d="m 68.94,55.9 c 0,3.26 -2.65,5.91 -5.92,5.91 -3.26,0 -5.91,-2.65 -5.91,-5.91 0,-3.26 2.65,-5.91 5.91,-5.91 3.27,0 5.92,2.65 5.92,5.91 z"
           id="path3354" />
        <circle
           fill="#f79329"
           cx="69.349998"
           cy="41.830002"
           r="5.4000001"
           id="circle3356" />
        <path
           fill="#f79329"
           d="m 81.66,28.78 c 0,3.04 -2.46,5.5 -5.5,5.5 -3.04,0 -5.5,-2.46 -5.5,-5.5 0,-3.04 2.46,-5.5 5.5,-5.5 3.03,0 5.5,2.46 5.5,5.5 z"
           id="path3358" />
      </g>
    </g>
    <path
       fill="#ffffff"
       d="m 22.19,65.63 c -6.58,-0.13 -10.7,-2.52 -10.7,-2.52 1.47,1.66 2.16,3.59 2.42,5.43 0.55,3.84 -4.51,19.41 -2.85,30.76 1.97,13.43 8.55,15.94 8.55,15.94 -9.69,-13.15 -0.07,-35.35 2.17,-43.6 1.16,-4.26 0.41,-6.01 0.41,-6.01 z"
       id="path3364" />
    <path
       fill="#ffffff"
       d="m 42.18,41.99 -2.49,1.95 c 0,0 3.54,1.23 4.18,4.8 l 3.67,-1.22 c 0,0 -0.75,-3.81 -5.36,-5.53 z"
       id="path3366" />
  </g>
</svg>
